REM DIRINDEX 1\4,1\2\5,1\2\6,1\3\7,1\3\8
REM DIRNAME folder01,folder02,folder03,folder04,folder05,folder06,folder07,folder08
TITLE ""
FILE "064_Day32_Check3_Sentences.mp3" MP3
  TRACK 01 AUDIO
    TITLE "0:"
    INDEX 01 00:00:00
  TRACK 02 AUDIO
    TITLE "4:cjc124_2082"
    INDEX 01 00:00:25
  TRACK 03 AUDIO
    TITLE "0:"
    INDEX 01 00:02:00
  TRACK 04 AUDIO
    TITLE "7:cjc124_2083"
    INDEX 01 00:02:45
  TRACK 05 AUDIO
    TITLE "0:"
    INDEX 01 00:06:47
  TRACK 06 AUDIO
    TITLE "8:cjc124_2084"
    INDEX 01 00:06:63
  TRACK 07 AUDIO
    TITLE "0:"
    INDEX 01 00:10:06
  TRACK 08 AUDIO
    TITLE "7:cjc124_2085"
    INDEX 01 00:10:43
  TRACK 09 AUDIO
    TITLE "0:"
    INDEX 01 00:13:61
  TRACK 10 AUDIO
    TITLE "8:cjc124_2086"
    INDEX 01 00:14:02
  TRACK 11 AUDIO
    TITLE "0:"
    INDEX 01 00:16:32
  TRACK 12 AUDIO
    TITLE "7:cjc124_2087"
    INDEX 01 00:16:67
  TRACK 13 AUDIO
    TITLE "0:"
    INDEX 01 00:19:56
  TRACK 14 AUDIO
    TITLE "8:cjc124_2088"
    INDEX 01 00:20:04
  TRACK 15 AUDIO
    TITLE "0:"
    INDEX 01 00:22:62
  TRACK 16 AUDIO
    TITLE "7:cjc124_2089"
    INDEX 01 00:23:24
  TRACK 17 AUDIO
    TITLE "0:"
    INDEX 01 00:26:32
  TRACK 18 AUDIO
    TITLE "8:cjc124_2090"
    INDEX 01 00:26:46
  TRACK 19 AUDIO
    TITLE "0:"
    INDEX 01 00:29:17
  TRACK 20 AUDIO
    TITLE "7:cjc124_2091"
    INDEX 01 00:29:52
  TRACK 21 AUDIO
    TITLE "0:"
    INDEX 01 00:32:29
  TRACK 22 AUDIO
    TITLE "8:cjc124_2092"
    INDEX 01 00:32:43
  TRACK 23 AUDIO
    TITLE "0:"
    INDEX 01 00:35:12
  TRACK 24 AUDIO
    TITLE "7:cjc124_2093"
    INDEX 01 00:35:49
  TRACK 25 AUDIO
    TITLE "0:"
    INDEX 01 00:38:49
  TRACK 26 AUDIO
    TITLE "8:cjc124_2094"
    INDEX 01 00:39:02
  TRACK 27 AUDIO
    TITLE "0:"
    INDEX 01 00:41:73
  TRACK 28 AUDIO
    TITLE "7:cjc124_2095"
    INDEX 01 00:42:33
  TRACK 29 AUDIO
    TITLE "0:"
    INDEX 01 00:46:68
  TRACK 30 AUDIO
    TITLE "8:cjc124_2096"
    INDEX 01 00:47:11
  TRACK 31 AUDIO
    TITLE "0:"
    INDEX 01 00:50:68
  TRACK 32 AUDIO
    TITLE "7:cjc124_2097"
    INDEX 01 00:51:28
  TRACK 33 AUDIO
    TITLE "0:"
    INDEX 01 00:54:03
  TRACK 34 AUDIO
    TITLE "8:cjc124_2098"
    INDEX 01 00:54:17
  TRACK 35 AUDIO
    TITLE "0:"
    INDEX 01 00:56:63
  TRACK 36 AUDIO
    TITLE "7:cjc124_2099"
    INDEX 01 00:57:25
  TRACK 37 AUDIO
    TITLE "0:"
    INDEX 01 01:01:50
  TRACK 38 AUDIO
    TITLE "8:cjc124_2100"
    INDEX 01 01:01:66
  TRACK 39 AUDIO
    TITLE "0:"
    INDEX 01 01:05:34
  TRACK 40 AUDIO
    TITLE "7:cjc124_2101"
    INDEX 01 01:05:73
  TRACK 41 AUDIO
    TITLE "0:"
    INDEX 01 01:10:24
  TRACK 42 AUDIO
    TITLE "8:cjc124_2102"
    INDEX 01 01:10:37
  TRACK 43 AUDIO
    TITLE "0:"
    INDEX 01 01:14:10
  TRACK 44 AUDIO
    TITLE "7:cjc124_2103"
    INDEX 01 01:14:47
  TRACK 45 AUDIO
    TITLE "0:"
    INDEX 01 01:17:69
  TRACK 46 AUDIO
    TITLE "8:cjc124_2104"
    INDEX 01 01:18:11
  TRACK 47 AUDIO
    TITLE "0:"
    INDEX 01 01:20:49
  TRACK 48 AUDIO
    TITLE "7:cjc124_2105"
    INDEX 01 01:21:14
  TRACK 49 AUDIO
    TITLE "0:"
    INDEX 01 01:24:47
  TRACK 50 AUDIO
    TITLE "8:cjc124_2106"
    INDEX 01 01:24:61
  TRACK 51 AUDIO
    TITLE "0:"
    INDEX 01 01:27:63
  TRACK 52 AUDIO
    TITLE "7:cjc124_2107"
    INDEX 01 01:28:24
  TRACK 53 AUDIO
    TITLE "0:"
    INDEX 01 01:33:38
  TRACK 54 AUDIO
    TITLE "8:cjc124_2108"
    INDEX 01 01:33:56
  TRACK 55 AUDIO
    TITLE "0:"
    INDEX 01 01:37:60
  TRACK 56 AUDIO
    TITLE "7:cjc124_2109"
    INDEX 01 01:38:22
  TRACK 57 AUDIO
    TITLE "0:"
    INDEX 01 01:41:20
  TRACK 58 AUDIO
    TITLE "8:cjc124_2110"
    INDEX 01 01:41:34
  TRACK 59 AUDIO
    TITLE "0:"
    INDEX 01 01:44:28
  TRACK 60 AUDIO
    TITLE "7:cjc124_2111"
    INDEX 01 01:44:66
  TRACK 61 AUDIO
    TITLE "0:"
    INDEX 01 01:48:52
  TRACK 62 AUDIO
    TITLE "8:cjc124_2112"
    INDEX 01 01:49:00
  TRACK 63 AUDIO
    TITLE "0:"
    INDEX 01 01:53:33
  TRACK 64 AUDIO
    TITLE "7:cjc124_2113"
    INDEX 01 01:53:69
  TRACK 65 AUDIO
    TITLE "0:"
    INDEX 01 01:58:40
  TRACK 66 AUDIO
    TITLE "8:cjc124_2114"
    INDEX 01 01:58:56
  TRACK 67 AUDIO
    TITLE "0:"
    INDEX 01 02:02:01
